<svg aria-hidden="true" xmlns="http://www.w3.org/2000/svg"><defs><symbol id="burger-close" viewBox="0 0 32 32"><path d="M23.884 6.706 16 14.59 8.116 6.706a.995.995 0 0 0-1.38.031 1 1 0 0 0-.031 1.38l7.88 7.884-7.882 7.882a1.002 1.002 0 0 0-.018 1.427.998.998 0 0 0 1.427-.015l7.886-7.882 7.884 7.884a1 1 0 0 0 1.38-.03 1 1 0 0 0 .03-1.38l-7.884-7.884 7.884-7.886a1.002 1.002 0 0 0 .018-1.427.998.998 0 0 0-1.427.015v.002z"/></symbol><symbol id="burger-open" viewBox="0 0 32 32"><path stroke-width="2" stroke-linecap="round" d="M6 10h20M6 16h20M6 22h20"/></symbol><symbol id="button-icon" viewBox="0 0 32 32"><path stroke-width="5.333" stroke-linecap="round" stroke-linejoin="round" d="M10.667 5.333 23.867 16l-13.2 10.667"/></symbol><symbol id="arrow-default" viewBox="0 0 82 32"><path d="M81.414 17.414a2 2 0 0 0 0-2.828L68.686 1.858a2 2 0 1 0-2.828 2.828L77.172 16 65.858 27.314a2 2 0 1 0 2.828 2.828l12.728-12.728zM0 18h80v-4H0v4z"/></symbol><symbol id="arrow" viewBox="0 0 84 32"><path d="M81.949 17.191a2 2 0 0 0 0-2.828L69.221 1.635a2 2 0 0 0-2.829 2.828l11.314 11.314-11.314 11.314a2 2 0 0 0 2.829 2.829l12.728-12.728zm-81.884.586h80.469v-4H.065v4z"/></symbol><symbol id="close" viewBox="0 0 32 32"><path d="M18.088 16 30.37 3.719a1.481 1.481 0 0 0-2.089-2.089L16 13.911 3.719 1.615a1.487 1.487 0 1 0-2.104 2.104L13.911 16 1.615 28.281a1.484 1.484 0 0 0 .423 2.505 1.472 1.472 0 0 0 1.186-.046c.184-.089.347-.215.48-.37L16 18.088 28.281 30.37a1.481 1.481 0 0 0 2.089-2.089L18.088 16z"/></symbol></defs></svg>